<?xml version="1.0" encoding="utf-8"?>
<!-- Generator: Adobe Illustrator 24.1.3, SVG Export Plug-In . SVG Version: 6.00 Build 0)  -->
<svg version="1.1" id="Capa_1" xmlns="http://www.w3.org/2000/svg" xmlns:xlink="http://www.w3.org/1999/xlink" x="0px" y="0px"
	 viewBox="0 0 512 512" style="enable-background:new 0 0 512 512;" xml:space="preserve">
<style type="text/css">
	.st0{fill:#2E598F;}
</style>
<path class="st0" d="M493.8,163.1c-17.2-17.2-45.1-17.2-62.3,0c-5.3,5.3-39,39.1-44.2,44.2V90.9c0-11.8-4.6-22.8-12.9-31.2
	l-41.6-41.6c-8.3-8.3-19.4-12.9-31.2-12.9H49.4C25.1,5.3,5.3,25,5.3,49.3v413.3c0,24.3,19.8,44.1,44.1,44.1h293.8
	c24.3,0,44.1-19.8,44.1-44.1V332l106.5-106.6C511,208.2,511,180.3,493.8,163.1z M345.7,332l-7.9,7.9l-31.2,10.4l10.4-31.2l7.9-7.9
	L345.7,332z M366.5,311.3l-20.8-20.8c11.1-11.1,60.2-60.2,70.6-70.7l20.8,20.8L366.5,311.3z M312,39l41.6,41.6
	c4.7,4.7,4.3,9.8,4.3,12.9h-58.8V34.7C301.9,34.7,307.2,34.2,312,39z M343.2,477.3H49.4c-8.1,0-14.7-6.6-14.7-14.7V49.3
	c0-8.1,6.6-14.7,14.7-14.7h220.4v73.5c0,8.1,6.6,14.7,14.7,14.7h73.5v113.9c0,0-43.3,43.4-43.3,43.4l-20.8,20.8
	c-1.6,1.6-2.8,3.6-3.5,5.7l-20.8,62.3c-1.8,5.3-0.4,11.1,3.5,15c3.9,3.9,9.8,5.3,15,3.5l62.3-20.8c2.2-0.7,4.1-1.9,5.7-3.5l1.8-1.8
	v101.2C357.9,470.8,351.3,477.3,343.2,477.3z M473,204.6l-15.1,15.2L437.1,199l15.1-15.2c5.7-5.7,15-5.7,20.8,0
	C478.7,189.6,478.8,198.9,473,204.6z"/>
<path class="st0" d="M78.7,181.6h205.7c8.1,0,14.7-6.6,14.7-14.7s-6.6-14.7-14.7-14.7H78.7c-8.1,0-14.7,6.6-14.7,14.7
	S70.6,181.6,78.7,181.6z"/>
<path class="st0" d="M78.7,240.3h146.9c8.1,0,14.7-6.6,14.7-14.7s-6.6-14.7-14.7-14.7H78.7c-8.1,0-14.7,6.6-14.7,14.7
	S70.6,240.3,78.7,240.3z"/>
<path class="st0" d="M78.7,299.1h146.9c8.1,0,14.7-6.6,14.7-14.7s-6.6-14.7-14.7-14.7H78.7c-8.1,0-14.7,6.6-14.7,14.7
	S70.6,299.1,78.7,299.1z"/>
<path class="st0" d="M240.3,343.2c0-8.1-6.6-14.7-14.7-14.7H78.7c-8.1,0-14.7,6.6-14.7,14.7s6.6,14.7,14.7,14.7h146.9
	C233.8,357.9,240.3,351.3,240.3,343.2z"/>
<path class="st0" d="M284.4,418.6h-88.1c-8.1,0-14.7,6.6-14.7,14.7s6.6,14.7,14.7,14.7h88.1c8.1,0,14.7-6.6,14.7-14.7
	S292.5,418.6,284.4,418.6z"/>
</svg>
