<?xml version="1.0" encoding="utf-8"?>
<!-- Generator: Adobe Illustrator 24.1.3, SVG Export Plug-In . SVG Version: 6.00 Build 0)  -->
<svg version="1.1" id="Camada_1" xmlns="http://www.w3.org/2000/svg" xmlns:xlink="http://www.w3.org/1999/xlink" x="0px" y="0px"
	 viewBox="0 0 24.1 21" style="enable-background:new 0 0 24.1 21;" xml:space="preserve">
<style type="text/css">
	.st0{fill:#FFFFFF;}
</style>
<g>
	<g>
		<path class="st0" d="M0.6,7.7h23.2C24,7.7,24.1,7.9,24,8c-0.3,0.6-1,1.9-2.5,1.9c-1.3,0-2-0.5-2.2-0.9C19.2,9,19.1,9,19,9.1
			c-0.3,0.3-1,0.9-2,0.9c-1.1,0-1.9-0.6-2.2-1c-0.1-0.1-0.3-0.1-0.4,0c-0.3,0.3-1,0.9-2.1,0.9c-1.1,0-1.8-0.6-2.1-0.9
			C10.1,9,9.9,9,9.8,9.1C9.5,9.4,8.8,10,7.5,10c-1.2,0-1.8-0.5-2-0.9C5.4,9,5.2,9,5.1,9.1C4.7,9.4,4,10,2.8,10C1.5,10,0.7,8.7,0.4,8
			C0.3,7.9,0.5,7.7,0.6,7.7z"/>
	</g>
	<g>
		<path class="st0" d="M0.7,6.9h3.9c0.1,0,0.2-0.1,0.2-0.2l0.8-4.2c0-0.2-0.1-0.3-0.2-0.3H2.5c-0.1,0-0.2,0.1-0.2,0.2L0.5,6.6
			C0.4,6.8,0.5,6.9,0.7,6.9z"/>
	</g>
	<g>
		<path class="st0" d="M6.7,2.5L6,6.6c0,0.2,0.1,0.3,0.2,0.3h3c0.1,0,0.3-0.1,0.3-0.3V2.5c0-0.1-0.1-0.3-0.3-0.3H7
			C6.9,2.3,6.8,2.4,6.7,2.5z"/>
	</g>
	<g>
		<path class="st0" d="M13.8,6.9h-3.1c-0.1,0-0.3-0.1-0.3-0.3V2.5c0-0.1,0.1-0.3,0.3-0.3h3.1c0.1,0,0.3,0.1,0.3,0.3v4.2
			C14.1,6.8,14,6.9,13.8,6.9z"/>
	</g>
	<g>
		<path class="st0" d="M15.2,6.9h3.1c0.2,0,0.3-0.1,0.2-0.3l-0.8-4.2c0-0.1-0.1-0.2-0.2-0.2h-2.3c-0.1,0-0.3,0.1-0.3,0.3v4.2
			C15,6.8,15.1,6.9,15.2,6.9z"/>
	</g>
	<g>
		<path class="st0" d="M23.8,6.9h-4.1c-0.1,0-0.2-0.1-0.2-0.2l-0.7-4.2c0-0.2,0.1-0.3,0.2-0.3h3.1c0.1,0,0.2,0.1,0.2,0.2l1.6,4.2
			C24.1,6.8,24,6.9,23.8,6.9z"/>
	</g>
	<g>
		<path class="st0" d="M21.9,1.5H2.6c-0.1,0-0.3-0.1-0.3-0.3v-1C2.4,0.1,2.5,0,2.6,0h19.3c0.1,0,0.3,0.1,0.3,0.3v1
			C22.2,1.4,22.1,1.5,21.9,1.5z"/>
	</g>
	<g>
		<path class="st0" d="M19.1,10.3c-2,1.4-3.9,0.3-4.4,0c-0.1-0.1-0.2-0.1-0.3,0c-1.8,1.3-3.9,0.3-4.4,0c-0.1,0-0.2,0-0.3,0
			c-2,1.4-3.7,0.4-4.2,0c-0.1-0.1-0.2-0.1-0.3,0c-1.1,0.8-2,0.7-2.5,0.6c-0.2,0-0.3,0.1-0.3,0.2v9.6c0,0.1,0.1,0.3,0.3,0.3h19.3
			c0.1,0,0.3-0.1,0.3-0.3v-9.5c0-0.2-0.1-0.3-0.3-0.2c-1.1,0.2-2.1-0.4-2.5-0.7C19.3,10.3,19.2,10.3,19.1,10.3z M11.3,19.2H5
			c-0.1,0-0.3-0.1-0.3-0.3v-6.3c0-0.1,0.1-0.3,0.3-0.3h6.3c0.1,0,0.3,0.1,0.3,0.3V19C11.5,19.1,11.4,19.2,11.3,19.2z M16.8,18.1
			c-0.3,0-0.5-0.2-0.5-0.5c0-0.3,0.2-0.5,0.5-0.5c0.3,0,0.5,0.2,0.5,0.5C17.3,17.9,17.1,18.1,16.8,18.1z M18.2,17.1
			c-0.1,0-0.1,0.1-0.2,0.1c-0.1,0-0.2,0-0.2-0.1c-0.3-0.4-0.7-0.6-1-0.6c-0.6,0-1.1,0.6-1.1,0.6c-0.1,0.1-0.3,0.1-0.4,0.1
			c-0.1-0.1-0.1-0.3-0.1-0.4c0,0,0.7-0.8,1.5-0.8c0.5,0,1,0.3,1.5,0.8C18.4,16.8,18.3,17,18.2,17.1z M19.3,16.3
			c-0.1,0-0.1,0.1-0.2,0.1c-0.1,0-0.2,0-0.2-0.1c-0.7-0.8-1.4-1.2-2.2-1.2c-1.2,0-2,1.1-2,1.1c-0.1,0.1-0.3,0.1-0.4,0.1
			c-0.1-0.1-0.1-0.3-0.1-0.4c0-0.1,1-1.3,2.4-1.3c0.9,0,1.8,0.4,2.6,1.4C19.4,16,19.4,16.2,19.3,16.3z M20.4,15.6
			c-0.1,0-0.1,0.1-0.2,0.1c-0.1,0-0.2,0-0.2-0.1c-1.1-1.2-2.2-1.8-3.3-1.7c-1.8,0.1-3,1.7-3.1,1.7c-0.1,0.1-0.3,0.1-0.4,0.1
			c-0.1-0.1-0.1-0.3-0.1-0.4c0.1-0.1,1.4-1.8,3.5-1.9c1.3-0.1,2.6,0.6,3.8,1.9C20.5,15.3,20.5,15.5,20.4,15.6z"/>
	</g>
	<path class="st0" d="M10.4,18.4H5.8c-0.1,0-0.3-0.1-0.3-0.3v-4.6c0-0.1,0.1-0.3,0.3-0.3h4.6c0.1,0,0.3,0.1,0.3,0.3v4.6
		C10.7,18.3,10.5,18.4,10.4,18.4z"/>
</g>
</svg>
