<?xml version="1.0" encoding="utf-8"?>
<!-- Generator: Adobe Illustrator 24.1.2, SVG Export Plug-In . SVG Version: 6.00 Build 0)  -->
<svg version="1.1" id="Layer_1" xmlns="http://www.w3.org/2000/svg" xmlns:xlink="http://www.w3.org/1999/xlink" x="0px" y="0px"
	 viewBox="0 0 4.19 4.18" style="enable-background:new 0 0 4.19 4.18;" xml:space="preserve">
<style type="text/css">
	.st0{fill:#FFFFFF;}
</style>
<g>
	<path class="st0" d="M1.65,2.08c0.01-0.23,0.21-0.43,0.44-0.43c0.24,0,0.44,0.2,0.44,0.44s-0.2,0.44-0.44,0.44
		C1.85,2.52,1.65,2.32,1.65,2.08z"/>
	<path class="st0" d="M2.97,1.44c0,0.22,0,0.22-0.22,0.22c-0.23,0-0.23,0-0.23-0.22c0-0.23,0-0.23,0.22-0.23
		C2.97,1.21,2.97,1.21,2.97,1.44z"/>
	<path class="st0" d="M2.97,2.06v0.77c0,0.1-0.03,0.13-0.14,0.13H1.35c-0.1,0-0.13-0.03-0.13-0.13V2c0-0.07,0.02-0.09,0.09-0.09
		c0.1,0.01,0.1,0,0.09,0.1C1.36,2.37,1.61,2.7,1.95,2.77c0.36,0.07,0.71-0.14,0.81-0.48C2.79,2.18,2.8,2.07,2.77,1.96
		c0-0.04,0.01-0.05,0.04-0.05C2.97,1.9,2.97,1.9,2.97,2.06z"/>
	<path class="st0" d="M2.09-0.01C0.94-0.01,0,0.93,0,2.09c0,1.16,0.94,2.1,2.09,2.1c1.16,0,2.1-0.94,2.1-2.1
		C4.19,0.93,3.25-0.01,2.09-0.01z M3.23,2.92c0,0.2-0.11,0.3-0.3,0.3H1.25c-0.18,0-0.29-0.1-0.29-0.3V1.26c0-0.2,0.1-0.3,0.3-0.3
		h1.67c0.19,0,0.3,0.1,0.3,0.29V2.92z"/>
</g>
</svg>
