<?xml version="1.0" encoding="utf-8"?>
<!-- Generator: Adobe Illustrator 24.1.3, SVG Export Plug-In . SVG Version: 6.00 Build 0)  -->
<svg version="1.1" id="Layer_1" xmlns="http://www.w3.org/2000/svg" xmlns:xlink="http://www.w3.org/1999/xlink" x="0px" y="0px"
	 viewBox="0 0 628 624" style="enable-background:new 0 0 628 624;" xml:space="preserve">
<style type="text/css">
	.st0{fill:#2E598F;}
</style>
<g id="Capa_1">
	<g>
		<g>
			<path class="st0" d="M474.2,167h-66.4v-0.8c0-10-4-19.6-10.8-26l0,0c-6.8-6.8-16-10.8-26-10.8H251c-10.4,0-19.6,4-26.4,10.8l0,0
				c-6.8,6.8-10.8,16-10.8,26v0.8h-66c-13.2,0-24.8,5.2-33.2,14c-8.4,8.4-14,20.4-14,33.2v199.2c0,13.2,5.2,24.8,14,33.2
				c8.4,8.4,20.4,14,33.2,14h326.4c13.2,0,24.8-5.2,33.2-14c8.4-8.4,14-20.4,14-33.2V214.2c0-13.2-5.2-24.8-14-33.2
				C499,172.2,487.4,167,474.2,167z M500.2,413.4c0,7.2-2.8,13.6-7.6,18.4c-4.8,4.8-11.2,7.6-18.4,7.6H147.8
				c-7.2,0-13.6-2.8-18.4-7.6c-4.8-4.8-7.6-11.2-7.6-18.4V214.2c0-7.2,2.8-13.6,7.6-18.4c4.8-4.8,11.2-7.6,18.4-7.6H225
				c6,0,10.8-4.8,10.8-10.8v-11.6c0-4.4,1.6-8.4,4.4-11.2l0,0l0,0c2.8-2.8,6.8-4.4,11.2-4.4H371c4.4,0,8.4,1.6,11.2,4.4
				c2.8,2.8,4.4,6.8,4.4,11.2v11.6c0,6,4.8,10.8,10.8,10.8h77.2c7.2,0,13.6,2.8,18.4,7.6c4.8,4.8,7.6,11.2,7.6,18.4v199.2H500.2z"/>
		</g>
		<g>
			<path class="st0" d="M311,215.4c-27.2,0-52,11.2-69.6,28.8c-18,18-28.8,42.4-28.8,69.6s11.2,52,28.8,69.6
				c18,18,42.4,28.8,69.6,28.8s52-11.2,69.6-28.8c18-18,28.8-42.4,28.8-69.6s-11.2-52-28.8-69.6C363,226.6,338.2,215.4,311,215.4z
				 M365.4,368.6c-14,13.6-33.2,22.4-54.4,22.4s-40.4-8.8-54.4-22.4c-14-14-22.4-33.2-22.4-54.4c0-21.2,8.8-40.4,22.4-54.4
				c14-14,33.2-22.4,54.4-22.4s40.4,8.8,54.4,22.4c14,14,22.4,33.2,22.4,54.4C388.2,335.4,379.4,354.6,365.4,368.6z"/>
		</g>
		<g>
			<circle class="st0" cx="453.4" cy="234.6" r="19.6"/>
		</g>
	</g>
</g>
<g id="Camada_2">
	<g>
		<path class="st0" d="M311,608.8c-78.8,0-152.9-30.7-208.6-86.4C46.7,466.7,16,392.6,16,313.8c0-78.8,30.7-152.9,86.4-208.6
			C158.1,49.5,232.2,18.8,311,18.8c78.8,0,152.9,30.7,208.6,86.4C575.3,160.9,606,235,606,313.8c0,78.8-30.7,152.9-86.4,208.6
			C463.9,578.1,389.8,608.8,311,608.8z M311,36.8c-152.7,0-277,124.3-277,277s124.3,277,277,277s277-124.3,277-277
			S463.7,36.8,311,36.8z"/>
	</g>
</g>
</svg>
