<?xml version="1.0" encoding="utf-8"?>
<!-- Generator: Adobe Illustrator 24.1.2, SVG Export Plug-In . SVG Version: 6.00 Build 0)  -->
<svg version="1.1" id="Camada_1" xmlns="http://www.w3.org/2000/svg" xmlns:xlink="http://www.w3.org/1999/xlink" x="0px" y="0px"
	 viewBox="0 0 109.3 109.3" style="enable-background:new 0 0 109.3 109.3;" xml:space="preserve">
<style type="text/css">
	.st0{fill:white;}
</style>
<g>
	<g>
		<path class="st0" d="M8.67,43.49h91.79c0.72,0,1.21,0.73,0.92,1.39c-1.1,2.54-4.03,7.69-9.75,7.69c-5.2,0-7.75-2.17-8.83-3.53
			c-0.38-0.47-1.09-0.5-1.5-0.05c-1.23,1.36-3.89,3.58-8.12,3.58c-4.46,0-7.48-2.46-8.79-3.79c-0.4-0.41-1.05-0.39-1.43,0.03
			c-1.23,1.33-4.06,3.76-8.38,3.76c-4.22,0-6.94-2.32-8.17-3.67c-0.4-0.44-1.09-0.44-1.49,0.01c-1.22,1.35-4.04,3.66-9.09,3.66
			c-4.83,0-7.01-2.11-7.91-3.48c-0.34-0.52-1.05-0.59-1.51-0.17c-1.47,1.35-4.62,3.65-9.03,3.65c-5.16,0-8.6-4.97-9.64-7.71
			C7.49,44.2,7.97,43.49,8.67,43.49z"/>
	</g>
	<g>
		<path class="st0" d="M8.94,40.51h15.51c0.48,0,0.89-0.34,0.98-0.81l3.18-16.45c0.12-0.62-0.35-1.19-0.98-1.19H16.1
			c-0.4,0-0.76,0.24-0.92,0.6L8.02,39.11C7.73,39.77,8.22,40.51,8.94,40.51z"/>
	</g>
	<g>
		<path class="st0" d="M32.86,22.88L29.8,39.33c-0.11,0.61,0.36,1.18,0.98,1.18h11.94c0.55,0,1-0.45,1-1V23.06c0-0.55-0.45-1-1-1
			h-8.88C33.36,22.06,32.94,22.4,32.86,22.88z"/>
	</g>
	<g>
		<path class="st0" d="M60.88,40.51H48.59c-0.55,0-1-0.45-1-1V23.06c0-0.55,0.45-1,1-1h12.29c0.55,0,1,0.45,1,1v16.45
			C61.88,40.06,61.43,40.51,60.88,40.51z"/>
	</g>
	<g>
		<path class="st0" d="M66.45,40.51h12.23c0.63,0,1.1-0.57,0.98-1.18l-3.04-16.45c-0.09-0.47-0.5-0.82-0.98-0.82h-9.19
			c-0.55,0-1,0.45-1,1v16.45C65.45,40.06,65.9,40.51,66.45,40.51z"/>
	</g>
	<g>
		<path class="st0" d="M100.63,40.51H84.46c-0.49,0-0.91-0.36-0.99-0.84l-2.63-16.45c-0.1-0.61,0.37-1.16,0.99-1.16h12.4
			c0.41,0,0.78,0.25,0.93,0.64l6.39,16.45C101.81,39.81,101.33,40.51,100.63,40.51z"/>
	</g>
	<g>
		<path class="st0" d="M93.02,18.93H16.6c-0.55,0-1-0.45-1-1v-3.95c0-0.55,0.45-1,1-1h76.43c0.55,0,1,0.45,1,1v3.95
			C94.02,18.49,93.58,18.93,93.02,18.93z"/>
	</g>
	<g>
		<path class="st0" d="M81.68,53.89c-7.82,5.47-15.5,1.31-17.6-0.04c-0.35-0.23-0.79-0.2-1.13,0.05c-6.98,5.02-15.34,1.05-17.5-0.13
			c-0.34-0.18-0.74-0.14-1.05,0.08c-7.92,5.58-14.64,1.53-16.61,0.08c-0.36-0.26-0.84-0.24-1.2,0.03c-4.18,3.14-8.05,2.92-9.94,2.53
			c-0.62-0.13-1.2,0.34-1.2,0.98v37.86c0,0.55,0.45,1,1,1h76.43c0.55,0,1-0.45,1-1V57.57c0-0.63-0.58-1.09-1.2-0.97
			c-4.23,0.78-8.38-1.72-9.85-2.73C82.48,53.63,82.03,53.65,81.68,53.89z M50.76,89.18H25.97c-0.55,0-1-0.45-1-1V63.39
			c0-0.55,0.45-1,1-1h24.79c0.55,0,1,0.45,1,1v24.79C51.76,88.73,51.31,89.18,50.76,89.18z M72.74,84.86
			c-1.07,0-1.93-0.87-1.93-1.93c0-1.07,0.87-1.93,1.93-1.93c1.07,0,1.93,0.87,1.93,1.93C74.68,83.99,73.81,84.86,72.74,84.86z
			 M78.34,80.68c-0.2,0.16-0.44,0.23-0.68,0.23c-0.33,0-0.66-0.15-0.88-0.43c-1.27-1.64-2.61-2.48-3.99-2.48
			c-2.38,0-4.34,2.45-4.36,2.48c-0.38,0.49-1.08,0.58-1.57,0.2c-0.49-0.38-0.58-1.08-0.2-1.57c0.11-0.14,2.62-3.34,6.13-3.34
			c2.1,0,4.04,1.13,5.76,3.34C78.91,79.61,78.82,80.31,78.34,80.68z M82.63,77.59c-0.21,0.19-0.48,0.28-0.74,0.28
			c-0.31,0-0.62-0.13-0.84-0.38c-2.78-3.15-5.67-4.71-8.59-4.62c-4.63,0.14-7.96,4.37-8,4.41c-0.38,0.49-1.08,0.58-1.57,0.2
			c-0.49-0.38-0.58-1.08-0.2-1.56c0.16-0.21,3.99-5.09,9.68-5.28c3.63-0.12,7.11,1.69,10.35,5.37
			C83.14,76.48,83.1,77.18,82.63,77.59z M86.81,74.75c-0.21,0.19-0.48,0.29-0.75,0.29c-0.31,0-0.61-0.12-0.83-0.37
			c-4.23-4.71-8.65-7-13.12-6.83c-7.06,0.28-12.05,6.7-12.1,6.76c-0.37,0.49-1.07,0.58-1.56,0.21c-0.49-0.37-0.58-1.07-0.21-1.56
			c0.23-0.3,5.65-7.31,13.77-7.64c5.17-0.21,10.18,2.34,14.88,7.57C87.3,73.63,87.27,74.34,86.81,74.75z"/>
	</g>
	<path class="st0" d="M47.34,85.9H29.25c-0.55,0-1-0.45-1-1V66.81c0-0.55,0.45-1,1-1h18.09c0.55,0,1,0.45,1,1V84.9
		C48.34,85.46,47.89,85.9,47.34,85.9z"/>
</g>
</svg>
