<?xml version="1.0" encoding="utf-8"?>
<!-- Generator: Adobe Illustrator 24.1.2, SVG Export Plug-In . SVG Version: 6.00 Build 0)  -->
<svg version="1.1" id="Layer_1" xmlns="http://www.w3.org/2000/svg" xmlns:xlink="http://www.w3.org/1999/xlink" x="0px" y="0px"
	 viewBox="0 0 40.93 23.4" style="enable-background:new 0 0 40.93 23.4;" xml:space="preserve">
<style type="text/css">
	.st0{fill:#FFFFFF;}
</style>
<g>
	<path class="st0" d="M37.96,23.2h-35c-1.38,0-2.5-1.12-2.5-2.5v0c0-1.38,1.12-2.5,2.5-2.5h35c1.38,0,2.5,1.12,2.5,2.5v0
		C40.46,22.08,39.34,23.2,37.96,23.2z"/>
	<path class="st0" d="M37.96,5.2h-35c-1.38,0-2.5-1.12-2.5-2.5v0c0-1.38,1.12-2.5,2.5-2.5h35c1.38,0,2.5,1.12,2.5,2.5v0
		C40.46,4.08,39.34,5.2,37.96,5.2z"/>
</g>
</svg>
