<?xml version="1.0" encoding="utf-8"?>
<!-- Generator: Adobe Illustrator 24.1.2, SVG Export Plug-In . SVG Version: 6.00 Build 0)  -->
<svg version="1.1" id="Layer_1" xmlns="http://www.w3.org/2000/svg" xmlns:xlink="http://www.w3.org/1999/xlink" x="0px" y="0px"
	 viewBox="0 0 40.9 23.4" style="enable-background:new 0 0 40.9 23.4;" xml:space="preserve">
<style type="text/css">
	.st0{fill:#FFFFFF;}
</style>
<path class="st0" d="M34.6,22.3c1,1,1,2.6,0,3.5c-0.5,0.5-1.1,0.7-1.8,0.7c-0.6,0-1.3-0.2-1.8-0.7L20.5,15.2L9.8,25.8
	c-1,1-2.6,1-3.5,0c-0.5-0.5-0.7-1.1-0.7-1.8c0-0.6,0.3-1.3,0.7-1.8l10.6-10.6L6.3,1.1c-1-1-1-2.6,0-3.5c0.5-0.5,1.1-0.7,1.8-0.7
	c0.6,0,1.3,0.3,1.8,0.7L20.5,8.2L31.1-2.4c1-1,2.6-1,3.5,0c0.5,0.5,0.7,1.1,0.7,1.8s-0.3,1.3-0.7,1.8L24,11.7L34.6,22.3z"/>
</svg>
