<?xml version="1.0" encoding="utf-8"?>
<!-- Generator: Adobe Illustrator 24.1.2, SVG Export Plug-In . SVG Version: 6.00 Build 0)  -->
<svg version="1.1" id="Layer_1" xmlns="http://www.w3.org/2000/svg" xmlns:xlink="http://www.w3.org/1999/xlink" x="0px" y="0px"
	 viewBox="0 0 4.19 4.18" style="enable-background:new 0 0 4.19 4.18;" xml:space="preserve">
<style type="text/css">
	.st0{fill:#FFFFFF;}
</style>
<g>
	<path class="st0" d="M4.19,2.1c0,1.09-0.84,2-1.91,2.08V2.63h0.46V2.1H2.28V1.94c0-0.13,0.02-0.21,0.06-0.26
		c0.03-0.04,0.1-0.07,0.19-0.07c0.08,0,0.19,0.02,0.28,0.04L2.9,1.2C2.73,1.13,2.56,1.12,2.38,1.12S2.06,1.15,1.94,1.21
		C1.83,1.28,1.75,1.35,1.71,1.46c-0.04,0.1-0.06,0.26-0.06,0.46V2.1H1.3v0.53h0.35v1.51C0.71,3.93,0,3.1,0,2.1C0,0.94,0.94,0,2.1,0
		C3.26,0,4.19,0.94,4.19,2.1z"/>
</g>
</svg>
