<?xml version="1.0" encoding="utf-8"?>
<!-- Generator: Adobe Illustrator 24.1.2, SVG Export Plug-In . SVG Version: 6.00 Build 0)  -->
<svg version="1.1" id="Layer_1" xmlns="http://www.w3.org/2000/svg" xmlns:xlink="http://www.w3.org/1999/xlink" x="0px" y="0px"
	 viewBox="0 0 4.19 4.18" style="enable-background:new 0 0 4.19 4.18;" xml:space="preserve">
<style type="text/css">
	.st0{fill:#FFFFFF;}
</style>
<g>
	<path class="st0" d="M2.1-0.01C0.94-0.01,0,0.92,0,2.09c0,1.16,0.94,2.1,2.1,2.1c1.15,0,2.09-0.94,2.09-2.1
		C4.19,0.92,3.25-0.01,2.1-0.01z M3.48,1.29C3.42,1.38,3.35,1.46,3.26,1.53C3.24,1.54,3.24,1.54,3.24,1.57
		c0,0.41-0.13,0.77-0.38,1.08C2.61,2.92,2.3,3.1,1.94,3.16c-0.39,0.07-0.76,0-1.1-0.21L0.83,2.93c0.2,0.02,0.39-0.01,0.57-0.09
		C1.48,2.8,1.56,2.77,1.63,2.71C1.55,2.7,1.47,2.68,1.39,2.65C1.27,2.59,1.18,2.48,1.13,2.35C1.12,2.33,1.12,2.33,1.15,2.33
		c0.09,0.01,0.15,0,0.2-0.02C1.31,2.29,1.26,2.29,1.22,2.26c-0.18-0.1-0.28-0.26-0.29-0.47c0-0.02,0-0.02,0.02-0.01
		C1.02,1.8,1.09,1.83,1.17,1.84C1.14,1.8,1.1,1.78,1.08,1.74C0.93,1.59,0.89,1.33,0.99,1.13C1,1.1,1.01,1.1,1.03,1.11
		C1.28,1.41,1.6,1.6,1.99,1.66c0.04,0.01,0.08,0.01,0.12,0.01c0.03,0.01,0.03,0,0.03-0.02C2.1,1.41,2.21,1.18,2.41,1.07
		c0.21-0.12,0.48-0.08,0.65,0.08C3.08,1.16,3.1,1.16,3.12,1.16c0.1-0.02,0.2-0.06,0.29-0.11c0.01,0,0.01-0.01,0.02-0.01
		C3.39,1.16,3.32,1.26,3.2,1.34c0.11-0.01,0.2-0.04,0.3-0.08C3.5,1.28,3.49,1.28,3.48,1.29z"/>
</g>
</svg>
