<?xml version="1.0" encoding="utf-8"?>
<!-- Generator: Adobe Illustrator 24.1.2, SVG Export Plug-In . SVG Version: 6.00 Build 0)  -->
<svg version="1.1" id="Layer_1" xmlns="http://www.w3.org/2000/svg" xmlns:xlink="http://www.w3.org/1999/xlink" x="0px" y="0px"
	 viewBox="0 0 4.19 4.18" style="enable-background:new 0 0 4.19 4.18;" xml:space="preserve">
<style type="text/css">
	.st0{fill:#FFFFFF;}
</style>
<g>
	<path class="st0" d="M3.13,1.84c-0.1-0.43-0.38-0.71-0.81-0.8C1.88,0.95,1.51,1.1,1.24,1.46C0.98,1.8,0.97,2.27,1.2,2.64
		c0.02,0.03,0.02,0.05,0.02,0.08c-0.04,0.11-0.07,0.22-0.1,0.32c0,0.02,0,0.03,0.02,0.02C1.26,3.03,1.37,3,1.49,2.97
		c0.02-0.01,0.04,0,0.06,0.01c0.17,0.1,0.35,0.15,0.58,0.15c0.02,0,0.08,0,0.14-0.01C2.87,3.02,3.27,2.43,3.13,1.84z M2.74,2.45
		c-0.01,0.13-0.11,0.2-0.23,0.23c-0.03,0.01-0.05,0.01-0.08,0c-0.05,0.01-0.09,0-0.13-0.02C2,2.58,1.78,2.4,1.61,2.16
		c-0.07-0.09-0.13-0.19-0.15-0.3C1.43,1.73,1.47,1.61,1.57,1.52C1.61,1.49,1.7,1.47,1.74,1.49C1.76,1.5,1.76,1.51,1.77,1.53
		C1.81,1.63,1.85,1.7,1.88,1.79c0.01,0.01,0.01,0.03,0,0.05C1.86,1.88,1.83,1.91,1.8,1.95C1.77,1.97,1.77,1.99,1.79,2.02
		C1.9,2.19,2.04,2.32,2.23,2.39C2.25,2.4,2.27,2.4,2.29,2.38c0.03-0.03,0.07-0.07,0.1-0.12C2.4,2.23,2.43,2.23,2.46,2.24
		C2.52,2.27,2.58,2.3,2.64,2.32c0.02,0.01,0.03,0.02,0.04,0.02C2.75,2.38,2.75,2.38,2.74,2.45z"/>
	<path class="st0" d="M2.09-0.01C0.94-0.01,0,0.93,0,2.08c0,1.16,0.94,2.1,2.09,2.1c1.16,0,2.1-0.94,2.1-2.1
		C4.19,0.93,3.25-0.01,2.09-0.01z M2.35,3.32c-0.3,0.06-0.58,0.02-0.84-0.11C1.49,3.2,1.48,3.2,1.46,3.2
		c-0.2,0.05-0.41,0.11-0.61,0.16C0.81,3.38,0.81,3.38,0.82,3.34c0.06-0.2,0.11-0.4,0.17-0.59c0-0.03,0-0.05-0.01-0.07
		C0.57,1.93,1,0.99,1.85,0.83C1.93,0.82,2.01,0.8,2.09,0.8C2.7,0.82,3.2,1.2,3.34,1.78C3.5,2.48,3.05,3.19,2.35,3.32z"/>
</g>
</svg>
