<?xml version="1.0" encoding="utf-8"?>
<!-- Generator: Adobe Illustrator 24.1.3, SVG Export Plug-In . SVG Version: 6.00 Build 0)  -->
<svg version="1.1" id="Layer_1" xmlns="http://www.w3.org/2000/svg" xmlns:xlink="http://www.w3.org/1999/xlink" x="0px" y="0px"
	 viewBox="0 0 36.4 40" style="enable-background:new 0 0 36.4 40;" xml:space="preserve">
<style type="text/css">
	.st0{fill:#2F5990;}
	.st1{fill:none;}
</style>
<g>
	<path class="st0" d="M35.6,15.6L1.3,6.9C0.4,6.7-0.3,7.7,0.2,8.4l8.2,13c0.5,0.8,0.8,1.8,0.8,2.8l0,12.7c0,0.9,1,1.3,1.7,0.8
		L36,17.4C36.7,16.9,36.5,15.8,35.6,15.6z M33.6,17.4L11.5,35.3c-0.3,0.3-0.8,0-0.8-0.4l0-10.7c0-0.4,0-0.7-0.1-1.1l10.4-2.4
		c0.4-0.1,0.6-0.4,0.6-0.7c0-0.1,0-0.1,0-0.2c-0.1-0.4-0.5-0.7-0.9-0.6l-10.5,2.4c-0.2-0.4-0.3-0.7-0.5-1l-7-11
		C2.5,9.3,2.8,8.8,3.2,8.9l30.2,7.7C33.8,16.7,33.9,17.2,33.6,17.4z"/>
</g>
<path class="st1" d="M36,16.5"/>
</svg>
