<?xml version="1.0" encoding="utf-8"?>
<!-- Generator: Adobe Illustrator 24.1.2, SVG Export Plug-In . SVG Version: 6.00 Build 0)  -->
<svg version="1.1" id="Camada_1" xmlns="http://www.w3.org/2000/svg" xmlns:xlink="http://www.w3.org/1999/xlink" x="0px" y="0px"
	 viewBox="0 0 174.02 174.02" style="enable-background:new 0 0 174.02 174.02;" xml:space="preserve">
<style type="text/css">
	.st0{fill:#FC5F2A;}
</style>
<g>
	<g>
		<path class="st0" d="M18.23,105.99c0-1.42,0.27-2.74,0.81-3.98c0.54-1.23,1.25-2.32,2.15-3.27c0.9-0.94,1.96-1.68,3.19-2.2
			c1.23-0.52,2.53-0.79,3.92-0.79s2.67,0.26,3.88,0.79c1.2,0.52,2.26,1.26,3.19,2.2c0.92,0.95,1.64,2.03,2.15,3.27
			c0.51,1.23,0.77,2.56,0.77,3.98v45.1h-4.3v-31.64l-11.44,13.77v17.87h-4.3V105.99z M22.53,126.38l11.44-13.77v-6.61
			c0-1.63-0.55-3-1.65-4.13c-1.1-1.13-2.44-1.69-4.03-1.69c-1.59,0-2.94,0.56-4.07,1.69c-1.13,1.13-1.69,2.51-1.69,4.13V126.38z"/>
		<path class="st0" d="M44.87,95.76h9.98c1.38,0,2.69,0.28,3.91,0.83c1.23,0.55,2.29,1.3,3.19,2.24c0.89,0.94,1.61,2.05,2.15,3.31
			c0.54,1.26,0.81,2.6,0.81,4.01v9.21c0,1.57-0.33,3.07-1,4.49c-0.67,1.42-1.59,2.6-2.76,3.54c1.18,1,2.1,2.19,2.76,3.58
			c0.66,1.39,1,2.9,1,4.53v19.6h-4.3v-19.6c0-1.63-0.55-3-1.65-4.13c-1.1-1.13-2.44-1.69-4.03-1.69h-5.76v25.42h-4.3V95.76z
			 M49.17,121.18h5.76c1.59,0,2.93-0.56,4.03-1.69c1.1-1.13,1.65-2.5,1.65-4.13v-9.21c0-1.68-0.56-3.1-1.69-4.25
			c-1.13-1.15-2.48-1.73-4.07-1.73h-5.68V121.18z"/>
		<path class="st0" d="M71.5,95.76h9.98c1.38,0,2.69,0.28,3.91,0.83c1.23,0.55,2.29,1.3,3.19,2.24c0.89,0.94,1.61,2.05,2.15,3.31
			c0.54,1.26,0.81,2.6,0.81,4.01v9.21c0,1.57-0.33,3.07-1,4.49c-0.67,1.42-1.59,2.6-2.76,3.54c1.18,1,2.1,2.19,2.76,3.58
			c0.66,1.39,1,2.9,1,4.53v19.6h-4.3v-19.6c0-1.63-0.55-3-1.65-4.13c-1.1-1.13-2.44-1.69-4.03-1.69H75.8v25.42h-4.3V95.76z
			 M75.8,121.18h5.76c1.59,0,2.93-0.56,4.03-1.69c1.1-1.13,1.65-2.5,1.65-4.13v-9.21c0-1.68-0.56-3.1-1.69-4.25
			c-1.13-1.15-2.48-1.73-4.07-1.73H75.8V121.18z"/>
		<path class="st0" d="M98.14,151.09V95.76h4.3v55.33H98.14z"/>
		<path class="st0" d="M109.04,96.78l3.38-1.02l6.68,10.63l6.6-10.63l3.38,1.02v54.31h-4.3v-45.65l-4.3,6.93h-2.76l-4.38-6.93v45.65
			h-4.3V96.78z"/>
		<path class="st0" d="M145.73,95.76c1.38,0,2.67,0.26,3.88,0.79c1.2,0.52,2.26,1.26,3.19,2.2c0.92,0.95,1.64,2.03,2.15,3.27
			c0.51,1.23,0.77,2.56,0.77,3.98v34.79c0,1.42-0.26,2.75-0.77,4.01c-0.51,1.26-1.23,2.35-2.15,3.27c-0.92,0.92-1.98,1.65-3.19,2.2
			c-1.2,0.55-2.5,0.83-3.88,0.83c-1.38,0-2.69-0.28-3.92-0.83c-1.23-0.55-2.29-1.29-3.19-2.2c-0.9-0.92-1.61-2.01-2.15-3.27
			c-0.54-1.26-0.81-2.6-0.81-4.01v-34.79c0-1.42,0.27-2.74,0.81-3.98c0.54-1.23,1.25-2.32,2.15-3.27c0.89-0.94,1.96-1.68,3.19-2.2
			C143.04,96.02,144.35,95.76,145.73,95.76z M151.41,105.99c0-1.63-0.55-3-1.65-4.13c-1.1-1.13-2.44-1.69-4.03-1.69
			c-1.59,0-2.94,0.56-4.07,1.69c-1.13,1.13-1.69,2.51-1.69,4.13v34.79c0,1.63,0.56,3.02,1.69,4.17c1.13,1.16,2.48,1.73,4.07,1.73
			c1.58,0,2.93-0.58,4.03-1.73c1.1-1.15,1.65-2.54,1.65-4.17V105.99z"/>
	</g>
	<g>
		<path class="st0" d="M20.42,161.57c0,0.29-0.09,0.52-0.28,0.69c-0.19,0.17-0.41,0.25-0.67,0.25s-0.48-0.08-0.67-0.25
			c-0.19-0.17-0.28-0.4-0.28-0.69s0.09-0.52,0.28-0.69c0.19-0.17,0.41-0.25,0.67-0.25s0.48,0.08,0.67,0.25
			C20.33,161.05,20.42,161.28,20.42,161.57z M20.27,168.83h-1.6v-5.64h1.6V168.83z"/>
		<path class="st0" d="M21.77,163.39c0.27-0.08,0.62-0.15,1.05-0.22c0.43-0.07,0.88-0.1,1.35-0.1c0.48,0,0.88,0.06,1.19,0.19
			s0.57,0.3,0.76,0.53c0.19,0.23,0.32,0.5,0.4,0.81c0.08,0.31,0.12,0.66,0.12,1.05v3.18h-1.6v-2.99c0-0.51-0.07-0.88-0.2-1.09
			c-0.14-0.21-0.39-0.32-0.76-0.32c-0.11,0-0.24,0.01-0.36,0.02s-0.24,0.02-0.34,0.04v4.35h-1.6V163.39z"/>
		<path class="st0" d="M27.82,166.02c0-0.41,0.07-0.79,0.2-1.15c0.13-0.36,0.32-0.67,0.57-0.94c0.25-0.27,0.55-0.48,0.91-0.64
			c0.36-0.16,0.76-0.24,1.22-0.24c0.3,0,0.58,0.03,0.83,0.08s0.49,0.13,0.73,0.23l-0.33,1.28c-0.15-0.06-0.31-0.11-0.49-0.15
			c-0.18-0.04-0.38-0.06-0.6-0.06c-0.47,0-0.82,0.15-1.06,0.44s-0.35,0.68-0.35,1.16c0,0.51,0.11,0.9,0.33,1.18
			c0.22,0.28,0.6,0.42,1.14,0.42c0.19,0,0.4-0.02,0.62-0.05c0.22-0.04,0.42-0.09,0.61-0.17l0.23,1.31c-0.19,0.08-0.42,0.15-0.7,0.2
			c-0.28,0.06-0.59,0.09-0.92,0.09c-0.51,0-0.96-0.08-1.33-0.23c-0.37-0.15-0.68-0.36-0.92-0.63s-0.41-0.58-0.52-0.94
			C27.87,166.83,27.82,166.44,27.82,166.02z"/>
		<path class="st0" d="M32.91,166.06c0-0.5,0.08-0.94,0.23-1.31c0.15-0.38,0.36-0.69,0.61-0.94s0.54-0.44,0.86-0.57
			c0.32-0.13,0.66-0.19,1-0.19c0.8,0,1.43,0.25,1.9,0.73s0.7,1.21,0.7,2.16c0,0.09,0,0.2-0.01,0.31c-0.01,0.11-0.01,0.21-0.02,0.29
			h-3.62c0.04,0.33,0.19,0.59,0.46,0.78c0.27,0.19,0.64,0.29,1.09,0.29c0.29,0,0.58-0.03,0.86-0.08s0.51-0.12,0.69-0.2l0.21,1.3
			c-0.09,0.04-0.2,0.08-0.34,0.13c-0.14,0.04-0.3,0.08-0.48,0.11c-0.18,0.03-0.36,0.06-0.56,0.08c-0.2,0.02-0.4,0.03-0.6,0.03
			c-0.51,0-0.95-0.08-1.32-0.23c-0.38-0.15-0.69-0.36-0.93-0.62c-0.25-0.26-0.43-0.57-0.55-0.93
			C32.97,166.86,32.91,166.47,32.91,166.06z M36.66,165.45c-0.01-0.14-0.03-0.27-0.07-0.4c-0.04-0.13-0.1-0.24-0.18-0.34
			c-0.08-0.1-0.19-0.18-0.31-0.25s-0.28-0.1-0.47-0.1c-0.18,0-0.33,0.03-0.46,0.09c-0.13,0.06-0.24,0.14-0.32,0.24
			c-0.09,0.1-0.15,0.22-0.2,0.35c-0.05,0.13-0.08,0.27-0.1,0.4H36.66z"/>
		<path class="st0" d="M39.43,163.39c0.27-0.08,0.62-0.15,1.05-0.22c0.43-0.07,0.88-0.1,1.35-0.1c0.48,0,0.88,0.06,1.19,0.19
			s0.57,0.3,0.76,0.53c0.19,0.23,0.32,0.5,0.4,0.81c0.08,0.31,0.12,0.66,0.12,1.05v3.18h-1.6v-2.99c0-0.51-0.07-0.88-0.2-1.09
			c-0.14-0.21-0.39-0.32-0.76-0.32c-0.11,0-0.24,0.01-0.36,0.02s-0.24,0.02-0.34,0.04v4.35h-1.6V163.39z"/>
		<path class="st0" d="M45.69,161.79l1.6-0.26v1.66h1.92v1.33h-1.92v1.98c0,0.34,0.06,0.6,0.18,0.8c0.12,0.2,0.36,0.3,0.71,0.3
			c0.17,0,0.35-0.02,0.53-0.05s0.35-0.08,0.5-0.13l0.23,1.24c-0.19,0.08-0.41,0.15-0.64,0.2c-0.24,0.06-0.52,0.09-0.87,0.09
			c-0.44,0-0.8-0.06-1.08-0.18c-0.29-0.12-0.51-0.28-0.69-0.49s-0.29-0.47-0.36-0.77c-0.07-0.3-0.1-0.63-0.1-1V161.79z"/>
		<path class="st0" d="M52.25,161.57c0,0.29-0.09,0.52-0.28,0.69c-0.19,0.17-0.41,0.25-0.67,0.25s-0.48-0.08-0.67-0.25
			c-0.19-0.17-0.28-0.4-0.28-0.69s0.09-0.52,0.28-0.69c0.19-0.17,0.41-0.25,0.67-0.25s0.48,0.08,0.67,0.25
			C52.15,161.05,52.25,161.28,52.25,161.57z M52.1,168.83h-1.6v-5.64h1.6V168.83z"/>
		<path class="st0" d="M54.97,168.83c-0.37-0.71-0.74-1.55-1.11-2.51c-0.38-0.96-0.73-2-1.07-3.13h1.69
			c0.07,0.28,0.16,0.58,0.25,0.91c0.1,0.33,0.2,0.65,0.3,0.99s0.21,0.66,0.31,0.97s0.21,0.6,0.31,0.86c0.09-0.26,0.19-0.54,0.3-0.86
			s0.21-0.64,0.32-0.97s0.2-0.66,0.3-0.99s0.18-0.63,0.25-0.91h1.65c-0.34,1.13-0.69,2.17-1.07,3.13c-0.38,0.96-0.75,1.79-1.11,2.51
			H54.97z"/>
		<path class="st0" d="M64.44,166c0,0.44-0.06,0.85-0.19,1.22c-0.13,0.37-0.31,0.68-0.56,0.94c-0.24,0.26-0.53,0.46-0.87,0.61
			s-0.72,0.21-1.14,0.21c-0.41,0-0.79-0.07-1.13-0.21s-0.63-0.34-0.87-0.61c-0.24-0.26-0.43-0.57-0.57-0.94s-0.2-0.77-0.2-1.22
			c0-0.44,0.07-0.85,0.21-1.21c0.14-0.36,0.33-0.67,0.58-0.93c0.25-0.26,0.54-0.46,0.88-0.6c0.34-0.14,0.71-0.21,1.11-0.21
			c0.41,0,0.78,0.07,1.12,0.21c0.34,0.14,0.63,0.34,0.87,0.6c0.24,0.26,0.43,0.57,0.57,0.93C64.37,165.16,64.44,165.56,64.44,166z
			 M62.81,166c0-0.49-0.1-0.88-0.29-1.16c-0.2-0.28-0.48-0.42-0.84-0.42s-0.65,0.14-0.85,0.42c-0.2,0.28-0.3,0.67-0.3,1.16
			c0,0.49,0.1,0.88,0.3,1.17c0.2,0.29,0.48,0.43,0.85,0.43s0.64-0.14,0.84-0.43C62.71,166.89,62.81,166.5,62.81,166z"/>
		<path class="st0" d="M70.27,163.05c0.47,0,0.86,0.05,1.18,0.16c0.31,0.11,0.57,0.26,0.76,0.46c0.19,0.2,0.32,0.44,0.4,0.73
			c0.08,0.29,0.12,0.6,0.12,0.95v3.32c-0.23,0.05-0.55,0.11-0.95,0.18c-0.41,0.07-0.9,0.1-1.48,0.1c-0.36,0-0.69-0.03-0.99-0.1
			c-0.3-0.06-0.55-0.17-0.77-0.32s-0.38-0.34-0.49-0.57c-0.11-0.24-0.17-0.52-0.17-0.87c0-0.33,0.07-0.61,0.2-0.83
			s0.31-0.41,0.53-0.55c0.22-0.14,0.48-0.23,0.76-0.29c0.29-0.06,0.58-0.09,0.89-0.09c0.21,0,0.39,0.01,0.55,0.03
			c0.16,0.02,0.29,0.04,0.39,0.07v-0.15c0-0.27-0.08-0.49-0.25-0.65c-0.16-0.16-0.45-0.25-0.86-0.25c-0.27,0-0.54,0.02-0.8,0.06
			c-0.26,0.04-0.49,0.09-0.69,0.17l-0.2-1.29c0.09-0.03,0.21-0.06,0.35-0.09c0.14-0.03,0.29-0.06,0.46-0.09
			c0.16-0.02,0.34-0.05,0.52-0.06C69.9,163.06,70.08,163.05,70.27,163.05z M70.4,167.72c0.16,0,0.31,0,0.45-0.01
			c0.14-0.01,0.26-0.02,0.34-0.03v-1.21c-0.06-0.01-0.16-0.03-0.29-0.04c-0.13-0.01-0.25-0.02-0.35-0.02
			c-0.15,0-0.29,0.01-0.42,0.03s-0.25,0.05-0.35,0.1s-0.18,0.12-0.24,0.2c-0.06,0.09-0.09,0.19-0.09,0.32
			c0,0.25,0.08,0.42,0.25,0.52C69.88,167.67,70.11,167.72,70.4,167.72z"/>
		<path class="st0" d="M75.79,167.69c0.29,0,0.5-0.03,0.62-0.09c0.12-0.06,0.18-0.17,0.18-0.33c0-0.13-0.08-0.24-0.24-0.34
			c-0.16-0.1-0.4-0.21-0.72-0.33c-0.25-0.09-0.48-0.19-0.68-0.29c-0.2-0.1-0.38-0.22-0.52-0.36c-0.14-0.14-0.25-0.31-0.33-0.5
			c-0.08-0.19-0.12-0.42-0.12-0.7c0-0.53,0.2-0.95,0.59-1.25c0.39-0.31,0.93-0.46,1.62-0.46c0.34,0,0.67,0.03,0.99,0.09
			c0.31,0.06,0.56,0.13,0.75,0.2l-0.28,1.24c-0.19-0.06-0.39-0.12-0.61-0.17c-0.22-0.05-0.46-0.07-0.73-0.07
			c-0.5,0-0.75,0.14-0.75,0.42c0,0.06,0.01,0.12,0.03,0.17s0.06,0.1,0.13,0.14c0.06,0.05,0.15,0.1,0.26,0.15
			c0.11,0.05,0.25,0.11,0.42,0.18c0.35,0.13,0.64,0.26,0.87,0.38s0.41,0.26,0.54,0.41c0.13,0.15,0.23,0.31,0.28,0.49
			c0.05,0.18,0.08,0.38,0.08,0.62c0,0.56-0.21,0.98-0.63,1.26c-0.42,0.29-1.01,0.43-1.77,0.43c-0.5,0-0.92-0.04-1.25-0.13
			c-0.33-0.09-0.56-0.16-0.69-0.21l0.27-1.3c0.27,0.11,0.55,0.19,0.84,0.25S75.51,167.69,75.79,167.69z"/>
		<path class="st0" d="M81.67,166.02c0-0.41,0.07-0.79,0.2-1.15c0.13-0.36,0.32-0.67,0.57-0.94c0.25-0.27,0.55-0.48,0.91-0.64
			c0.36-0.16,0.76-0.24,1.22-0.24c0.3,0,0.58,0.03,0.83,0.08s0.49,0.13,0.73,0.23l-0.33,1.28c-0.15-0.06-0.31-0.11-0.49-0.15
			c-0.18-0.04-0.38-0.06-0.6-0.06c-0.47,0-0.82,0.15-1.06,0.44s-0.35,0.68-0.35,1.16c0,0.51,0.11,0.9,0.33,1.18
			c0.22,0.28,0.6,0.42,1.14,0.42c0.19,0,0.4-0.02,0.62-0.05c0.22-0.04,0.42-0.09,0.61-0.17l0.23,1.31c-0.19,0.08-0.42,0.15-0.7,0.2
			c-0.28,0.06-0.59,0.09-0.92,0.09c-0.51,0-0.96-0.08-1.33-0.23c-0.37-0.15-0.68-0.36-0.92-0.63s-0.41-0.58-0.52-0.94
			C81.73,166.83,81.67,166.44,81.67,166.02z"/>
		<path class="st0" d="M92.3,166c0,0.44-0.06,0.85-0.19,1.22c-0.13,0.37-0.31,0.68-0.56,0.94s-0.53,0.46-0.87,0.61
			c-0.34,0.14-0.72,0.21-1.14,0.21c-0.41,0-0.79-0.07-1.13-0.21c-0.34-0.14-0.63-0.34-0.87-0.61c-0.24-0.26-0.43-0.57-0.57-0.94
			s-0.2-0.77-0.2-1.22c0-0.44,0.07-0.85,0.21-1.21c0.14-0.36,0.33-0.67,0.58-0.93c0.25-0.26,0.54-0.46,0.88-0.6
			c0.34-0.14,0.71-0.21,1.11-0.21c0.41,0,0.78,0.07,1.12,0.21c0.34,0.14,0.63,0.34,0.87,0.6s0.43,0.57,0.57,0.93
			C92.23,165.16,92.3,165.56,92.3,166z M90.67,166c0-0.49-0.1-0.88-0.29-1.16c-0.2-0.28-0.48-0.42-0.84-0.42s-0.65,0.14-0.85,0.42
			c-0.2,0.28-0.3,0.67-0.3,1.16c0,0.49,0.1,0.88,0.3,1.17c0.2,0.29,0.48,0.43,0.85,0.43s0.64-0.14,0.84-0.43
			C90.57,166.89,90.67,166.5,90.67,166z"/>
		<path class="st0" d="M96.63,165.84c0-0.51-0.07-0.88-0.2-1.09c-0.13-0.21-0.36-0.32-0.68-0.32c-0.1,0-0.2,0.01-0.31,0.02
			s-0.21,0.02-0.31,0.04v4.35h-1.6v-5.44c0.14-0.04,0.29-0.07,0.48-0.11s0.38-0.08,0.58-0.11c0.2-0.03,0.41-0.06,0.63-0.08
			c0.21-0.02,0.42-0.03,0.63-0.03c0.41,0,0.74,0.05,0.99,0.16c0.25,0.1,0.46,0.23,0.63,0.37c0.23-0.17,0.49-0.29,0.79-0.39
			s0.57-0.14,0.82-0.14c0.45,0,0.82,0.06,1.11,0.19c0.29,0.13,0.52,0.3,0.69,0.53c0.17,0.23,0.29,0.5,0.35,0.81
			c0.06,0.31,0.1,0.66,0.1,1.05v3.18h-1.6v-2.99c0-0.51-0.07-0.88-0.2-1.09c-0.13-0.21-0.36-0.32-0.68-0.32
			c-0.09,0-0.21,0.02-0.36,0.06s-0.28,0.1-0.38,0.16c0.05,0.16,0.08,0.34,0.1,0.52c0.01,0.18,0.02,0.38,0.02,0.58v3.08h-1.6V165.84z
			"/>
		<path class="st0" d="M108.01,166.02c0,0.44-0.05,0.83-0.16,1.19c-0.11,0.36-0.27,0.66-0.47,0.92c-0.21,0.26-0.46,0.46-0.77,0.6
			c-0.31,0.14-0.66,0.21-1.06,0.21c-0.22,0-0.43-0.02-0.62-0.06s-0.38-0.1-0.56-0.18v2.12h-1.6v-7.43c0.14-0.04,0.31-0.08,0.49-0.12
			c0.19-0.04,0.38-0.07,0.58-0.1c0.2-0.03,0.41-0.05,0.62-0.07c0.21-0.02,0.41-0.03,0.61-0.03c0.46,0,0.88,0.07,1.24,0.21
			c0.37,0.14,0.67,0.34,0.92,0.59c0.25,0.25,0.44,0.56,0.57,0.93C107.94,165.16,108.01,165.57,108.01,166.02z M106.38,166.06
			c0-0.49-0.11-0.89-0.33-1.18c-0.22-0.3-0.55-0.45-0.99-0.45c-0.14,0-0.27,0.01-0.4,0.02c-0.12,0.01-0.22,0.02-0.3,0.04v2.88
			c0.1,0.06,0.23,0.12,0.39,0.16s0.32,0.06,0.49,0.06C106,167.59,106.38,167.08,106.38,166.06z"/>
		<path class="st0" d="M112.64,164.61c-0.14-0.04-0.31-0.07-0.5-0.11c-0.19-0.04-0.4-0.06-0.62-0.06c-0.1,0-0.22,0.01-0.36,0.03
			c-0.14,0.02-0.25,0.04-0.32,0.06v4.31h-1.6v-5.34c0.29-0.1,0.62-0.19,1.01-0.28c0.39-0.09,0.82-0.13,1.3-0.13
			c0.09,0,0.19,0,0.31,0.02c0.12,0.01,0.24,0.03,0.36,0.04c0.12,0.02,0.24,0.04,0.36,0.06c0.12,0.03,0.23,0.06,0.31,0.09
			L112.64,164.61z"/>
		<path class="st0" d="M115.68,163.05c0.47,0,0.86,0.05,1.18,0.16c0.31,0.11,0.57,0.26,0.75,0.46c0.19,0.2,0.32,0.44,0.4,0.73
			c0.08,0.29,0.12,0.6,0.12,0.95v3.32c-0.23,0.05-0.55,0.11-0.95,0.18c-0.41,0.07-0.9,0.1-1.48,0.1c-0.36,0-0.7-0.03-0.99-0.1
			c-0.3-0.06-0.55-0.17-0.77-0.32c-0.21-0.15-0.38-0.34-0.49-0.57c-0.12-0.24-0.17-0.52-0.17-0.87c0-0.33,0.07-0.61,0.2-0.83
			s0.31-0.41,0.53-0.55s0.48-0.23,0.76-0.29c0.29-0.06,0.58-0.09,0.89-0.09c0.21,0,0.39,0.01,0.55,0.03
			c0.16,0.02,0.29,0.04,0.39,0.07v-0.15c0-0.27-0.08-0.49-0.25-0.65s-0.45-0.25-0.86-0.25c-0.27,0-0.54,0.02-0.8,0.06
			c-0.26,0.04-0.49,0.09-0.69,0.17l-0.2-1.29c0.09-0.03,0.21-0.06,0.35-0.09c0.14-0.03,0.29-0.06,0.46-0.09
			c0.16-0.02,0.34-0.05,0.52-0.06C115.31,163.06,115.49,163.05,115.68,163.05z M115.81,167.72c0.16,0,0.31,0,0.45-0.01
			c0.14-0.01,0.26-0.02,0.34-0.03v-1.21c-0.06-0.01-0.16-0.03-0.29-0.04c-0.13-0.01-0.25-0.02-0.35-0.02
			c-0.15,0-0.29,0.01-0.42,0.03c-0.13,0.02-0.25,0.05-0.35,0.1s-0.18,0.12-0.24,0.2c-0.06,0.09-0.09,0.19-0.09,0.32
			c0,0.25,0.08,0.42,0.25,0.52S115.51,167.72,115.81,167.72z"/>
		<path class="st0" d="M121.2,167.69c0.29,0,0.5-0.03,0.62-0.09c0.12-0.06,0.18-0.17,0.18-0.33c0-0.13-0.08-0.24-0.24-0.34
			c-0.16-0.1-0.4-0.21-0.72-0.33c-0.25-0.09-0.48-0.19-0.68-0.29c-0.2-0.1-0.38-0.22-0.52-0.36c-0.14-0.14-0.25-0.31-0.33-0.5
			c-0.08-0.19-0.12-0.42-0.12-0.7c0-0.53,0.2-0.95,0.59-1.25c0.39-0.31,0.93-0.46,1.62-0.46c0.34,0,0.67,0.03,0.99,0.09
			s0.56,0.13,0.75,0.2l-0.28,1.24c-0.19-0.06-0.39-0.12-0.61-0.17c-0.22-0.05-0.46-0.07-0.73-0.07c-0.5,0-0.75,0.14-0.75,0.42
			c0,0.06,0.01,0.12,0.03,0.17s0.06,0.1,0.13,0.14c0.06,0.05,0.15,0.1,0.26,0.15c0.11,0.05,0.25,0.11,0.42,0.18
			c0.35,0.13,0.64,0.26,0.87,0.38s0.41,0.26,0.54,0.41c0.13,0.15,0.23,0.31,0.28,0.49c0.05,0.18,0.08,0.38,0.08,0.62
			c0,0.56-0.21,0.98-0.63,1.26s-1.01,0.43-1.77,0.43c-0.5,0-0.92-0.04-1.25-0.13c-0.33-0.09-0.56-0.16-0.69-0.21l0.27-1.3
			c0.27,0.11,0.55,0.19,0.84,0.25S120.92,167.69,121.2,167.69z"/>
		<path class="st0" d="M129.6,168.94c-0.46-0.01-0.84-0.06-1.13-0.15c-0.29-0.09-0.52-0.22-0.69-0.39s-0.28-0.37-0.34-0.61
			s-0.09-0.51-0.09-0.81v-6.2l1.6-0.26v6.14c0,0.14,0.01,0.27,0.03,0.39s0.06,0.21,0.12,0.29c0.06,0.08,0.15,0.14,0.26,0.19
			c0.11,0.05,0.27,0.08,0.46,0.1L129.6,168.94z"/>
		<path class="st0" d="M136.01,166c0,0.44-0.06,0.85-0.19,1.22s-0.31,0.68-0.56,0.94c-0.24,0.26-0.53,0.46-0.87,0.61
			s-0.72,0.21-1.14,0.21c-0.42,0-0.79-0.07-1.13-0.21c-0.34-0.14-0.63-0.34-0.87-0.61c-0.24-0.26-0.43-0.57-0.57-0.94
			s-0.2-0.77-0.2-1.22c0-0.44,0.07-0.85,0.21-1.21c0.14-0.36,0.33-0.67,0.58-0.93c0.25-0.26,0.54-0.46,0.88-0.6
			c0.34-0.14,0.71-0.21,1.11-0.21c0.41,0,0.78,0.07,1.12,0.21c0.34,0.14,0.63,0.34,0.87,0.6c0.24,0.26,0.43,0.57,0.57,0.93
			C135.94,165.16,136.01,165.56,136.01,166z M134.38,166c0-0.49-0.1-0.88-0.29-1.16s-0.48-0.42-0.84-0.42s-0.65,0.14-0.85,0.42
			c-0.2,0.28-0.3,0.67-0.3,1.16c0,0.49,0.1,0.88,0.3,1.17c0.2,0.29,0.48,0.43,0.85,0.43s0.64-0.14,0.84-0.43
			S134.38,166.5,134.38,166z"/>
		<path class="st0" d="M136.97,166.02c0-0.41,0.07-0.79,0.2-1.15c0.13-0.36,0.32-0.67,0.57-0.94c0.25-0.27,0.55-0.48,0.91-0.64
			c0.36-0.16,0.76-0.24,1.22-0.24c0.3,0,0.58,0.03,0.83,0.08s0.49,0.13,0.73,0.23l-0.33,1.28c-0.15-0.06-0.31-0.11-0.49-0.15
			s-0.38-0.06-0.6-0.06c-0.47,0-0.82,0.15-1.06,0.44s-0.35,0.68-0.35,1.16c0,0.51,0.11,0.9,0.33,1.18c0.22,0.28,0.6,0.42,1.14,0.42
			c0.19,0,0.4-0.02,0.62-0.05c0.22-0.04,0.42-0.09,0.61-0.17l0.22,1.31c-0.19,0.08-0.42,0.15-0.7,0.2
			c-0.28,0.06-0.59,0.09-0.92,0.09c-0.51,0-0.96-0.08-1.33-0.23c-0.37-0.15-0.68-0.36-0.92-0.63s-0.41-0.58-0.52-0.94
			C137.03,166.83,136.97,166.44,136.97,166.02z"/>
		<path class="st0" d="M144.35,163.05c0.47,0,0.86,0.05,1.18,0.16c0.31,0.11,0.57,0.26,0.75,0.46c0.19,0.2,0.32,0.44,0.4,0.73
			c0.08,0.29,0.12,0.6,0.12,0.95v3.32c-0.23,0.05-0.55,0.11-0.95,0.18c-0.41,0.07-0.9,0.1-1.48,0.1c-0.36,0-0.7-0.03-0.99-0.1
			c-0.3-0.06-0.55-0.17-0.77-0.32c-0.21-0.15-0.38-0.34-0.49-0.57c-0.12-0.24-0.17-0.52-0.17-0.87c0-0.33,0.07-0.61,0.2-0.83
			s0.31-0.41,0.53-0.55s0.48-0.23,0.76-0.29c0.29-0.06,0.58-0.09,0.89-0.09c0.21,0,0.39,0.01,0.55,0.03
			c0.16,0.02,0.29,0.04,0.39,0.07v-0.15c0-0.27-0.08-0.49-0.25-0.65s-0.45-0.25-0.86-0.25c-0.27,0-0.54,0.02-0.8,0.06
			c-0.26,0.04-0.49,0.09-0.69,0.17l-0.2-1.29c0.09-0.03,0.21-0.06,0.35-0.09c0.14-0.03,0.29-0.06,0.46-0.09
			c0.16-0.02,0.34-0.05,0.52-0.06C143.98,163.06,144.17,163.05,144.35,163.05z M144.48,167.72c0.16,0,0.31,0,0.45-0.01
			c0.14-0.01,0.26-0.02,0.34-0.03v-1.21c-0.06-0.01-0.16-0.03-0.29-0.04c-0.13-0.01-0.25-0.02-0.35-0.02
			c-0.15,0-0.29,0.01-0.42,0.03c-0.13,0.02-0.25,0.05-0.35,0.1s-0.18,0.12-0.24,0.2c-0.06,0.09-0.09,0.19-0.09,0.32
			c0,0.25,0.08,0.42,0.25,0.52S144.19,167.72,144.48,167.72z"/>
		<path class="st0" d="M150,161.57c0,0.29-0.1,0.52-0.28,0.69c-0.19,0.17-0.41,0.25-0.67,0.25s-0.48-0.08-0.67-0.25
			c-0.19-0.17-0.28-0.4-0.28-0.69s0.09-0.52,0.28-0.69s0.41-0.25,0.67-0.25s0.48,0.08,0.67,0.25C149.9,161.05,150,161.28,150,161.57
			z M149.85,168.83h-1.6v-5.64h1.6V168.83z"/>
		<path class="st0" d="M152.97,167.69c0.29,0,0.5-0.03,0.62-0.09c0.12-0.06,0.18-0.17,0.18-0.33c0-0.13-0.08-0.24-0.24-0.34
			c-0.16-0.1-0.4-0.21-0.72-0.33c-0.25-0.09-0.48-0.19-0.68-0.29c-0.2-0.1-0.38-0.22-0.52-0.36c-0.14-0.14-0.25-0.31-0.33-0.5
			c-0.08-0.19-0.12-0.42-0.12-0.7c0-0.53,0.2-0.95,0.59-1.25c0.39-0.31,0.93-0.46,1.62-0.46c0.34,0,0.67,0.03,0.99,0.09
			s0.56,0.13,0.75,0.2l-0.28,1.24c-0.19-0.06-0.39-0.12-0.61-0.17c-0.22-0.05-0.46-0.07-0.73-0.07c-0.5,0-0.75,0.14-0.75,0.42
			c0,0.06,0.01,0.12,0.03,0.17s0.06,0.1,0.13,0.14c0.06,0.05,0.15,0.1,0.26,0.15c0.11,0.05,0.25,0.11,0.42,0.18
			c0.35,0.13,0.64,0.26,0.87,0.38s0.41,0.26,0.54,0.41c0.13,0.15,0.23,0.31,0.28,0.49c0.05,0.18,0.08,0.38,0.08,0.62
			c0,0.56-0.21,0.98-0.63,1.26s-1.01,0.43-1.77,0.43c-0.5,0-0.92-0.04-1.25-0.13c-0.33-0.09-0.56-0.16-0.69-0.21l0.27-1.3
			c0.27,0.11,0.55,0.19,0.84,0.25S152.69,167.69,152.97,167.69z"/>
	</g>
	<g>
		<path class="st0" d="M40.77,33.33h91.79c0.72,0,1.21,0.73,0.92,1.39c-1.1,2.54-4.03,7.69-9.75,7.69c-5.2,0-7.75-2.17-8.83-3.53
			c-0.38-0.47-1.09-0.5-1.5-0.05c-1.23,1.36-3.89,3.58-8.12,3.58c-4.46,0-7.48-2.46-8.79-3.79c-0.4-0.41-1.05-0.39-1.43,0.03
			c-1.23,1.33-4.06,3.76-8.38,3.76c-4.22,0-6.94-2.32-8.17-3.67c-0.4-0.44-1.09-0.44-1.49,0.01c-1.22,1.35-4.04,3.66-9.09,3.66
			c-4.83,0-7.01-2.11-7.91-3.48c-0.34-0.52-1.05-0.59-1.51-0.17c-1.47,1.35-4.62,3.65-9.03,3.65c-5.16,0-8.6-4.97-9.64-7.71
			C39.59,34.03,40.06,33.33,40.77,33.33z"/>
	</g>
	<g>
		<path class="st0" d="M41.03,30.35h15.51c0.48,0,0.89-0.34,0.98-0.81l3.18-16.45c0.12-0.62-0.35-1.19-0.98-1.19H48.2
			c-0.4,0-0.76,0.24-0.92,0.6l-7.17,16.45C39.83,29.61,40.31,30.35,41.03,30.35z"/>
	</g>
	<g>
		<path class="st0" d="M64.95,12.71L61.9,29.17c-0.11,0.61,0.36,1.18,0.98,1.18h11.94c0.55,0,1-0.45,1-1V12.9c0-0.55-0.45-1-1-1
			h-8.88C65.45,11.9,65.04,12.24,64.95,12.71z"/>
	</g>
	<g>
		<path class="st0" d="M92.97,30.35H80.69c-0.55,0-1-0.45-1-1V12.9c0-0.55,0.45-1,1-1h12.29c0.55,0,1,0.45,1,1v16.45
			C93.97,29.9,93.53,30.35,92.97,30.35z"/>
	</g>
	<g>
		<path class="st0" d="M98.55,30.35h12.23c0.63,0,1.1-0.57,0.98-1.18l-3.04-16.45c-0.09-0.47-0.5-0.82-0.98-0.82h-9.19
			c-0.55,0-1,0.45-1,1v16.45C97.55,29.9,97.99,30.35,98.55,30.35z"/>
	</g>
	<g>
		<path class="st0" d="M132.72,30.35h-16.17c-0.49,0-0.91-0.36-0.99-0.84l-2.63-16.45c-0.1-0.61,0.37-1.16,0.99-1.16h12.4
			c0.41,0,0.78,0.25,0.93,0.64l6.39,16.45C133.91,29.64,133.42,30.35,132.72,30.35z"/>
	</g>
	<g>
		<path class="st0" d="M125.12,8.77H48.69c-0.55,0-1-0.45-1-1V3.82c0-0.55,0.45-1,1-1h76.43c0.55,0,1,0.45,1,1v3.95
			C126.12,8.32,125.67,8.77,125.12,8.77z"/>
	</g>
	<g>
		<path class="st0" d="M113.78,43.73c-7.82,5.47-15.5,1.31-17.6-0.04c-0.35-0.23-0.79-0.2-1.13,0.05
			c-6.98,5.02-15.34,1.05-17.5-0.13c-0.34-0.18-0.74-0.14-1.05,0.08c-7.92,5.58-14.64,1.53-16.61,0.08
			c-0.36-0.26-0.85-0.24-1.2,0.03c-4.18,3.14-8.05,2.92-9.94,2.53c-0.62-0.13-1.2,0.34-1.2,0.98v37.86c0,0.55,0.45,1,1,1h76.43
			c0.55,0,1-0.45,1-1V47.41c0-0.63-0.58-1.09-1.2-0.97c-4.23,0.78-8.38-1.72-9.85-2.73C114.57,43.46,114.12,43.48,113.78,43.73z
			 M82.85,79.01H58.07c-0.55,0-1-0.45-1-1V53.23c0-0.55,0.45-1,1-1h24.79c0.55,0,1,0.45,1,1v24.79
			C83.85,78.57,83.41,79.01,82.85,79.01z M104.84,74.7c-1.07,0-1.93-0.87-1.93-1.93c0-1.07,0.87-1.93,1.93-1.93
			c1.07,0,1.93,0.87,1.93,1.93C106.77,73.83,105.91,74.7,104.84,74.7z M110.43,70.52c-0.2,0.16-0.44,0.23-0.68,0.23
			c-0.33,0-0.66-0.15-0.88-0.43c-1.27-1.64-2.61-2.48-3.99-2.48c-2.38,0-4.34,2.45-4.36,2.48c-0.38,0.49-1.08,0.58-1.57,0.2
			c-0.49-0.38-0.58-1.08-0.2-1.57c0.11-0.14,2.62-3.34,6.13-3.34c2.1,0,4.04,1.13,5.76,3.34C111.01,69.44,110.92,70.14,110.43,70.52
			z M114.73,67.42c-0.21,0.19-0.48,0.28-0.74,0.28c-0.31,0-0.62-0.13-0.84-0.38c-2.78-3.15-5.67-4.71-8.59-4.62
			c-4.63,0.14-7.96,4.37-8,4.41c-0.38,0.49-1.08,0.58-1.57,0.2c-0.49-0.38-0.58-1.08-0.2-1.56c0.16-0.21,3.99-5.09,9.68-5.28
			c3.63-0.12,7.11,1.69,10.35,5.37C115.24,66.31,115.19,67.02,114.73,67.42z M118.9,64.59c-0.21,0.19-0.48,0.29-0.75,0.29
			c-0.31,0-0.61-0.12-0.83-0.37c-4.23-4.71-8.65-7-13.12-6.83c-7.06,0.28-12.05,6.7-12.1,6.76c-0.37,0.49-1.07,0.58-1.56,0.21
			c-0.49-0.37-0.58-1.07-0.21-1.56c0.23-0.3,5.65-7.31,13.77-7.64c5.17-0.21,10.18,2.34,14.88,7.57
			C119.4,63.47,119.36,64.18,118.9,64.59z"/>
	</g>
	<path class="st0" d="M79.43,75.74H61.34c-0.55,0-1-0.45-1-1V56.65c0-0.55,0.45-1,1-1h18.09c0.55,0,1,0.45,1,1v18.09
		C80.43,75.29,79.98,75.74,79.43,75.74z"/>
</g>
</svg>
